# xmcd
#
# Track frame offsets: 
#        150
#        26782
#        63400
#        100561
#        128564
#        161030
#        182068
#        200440
#        224395
#        248700
#        269239
#
# Disc length: 3930 seconds
#
# Revision: 1
# Processed by: cddbd v1.5.1PL2 Copyright (c) Steve Scherf et al.
# Submitted via: ExactAudioCopy v0.95b4
#
DISCID=a00f580b
DTITLE=Geri Allen - The Life of a Song
DYEAR=2004
DGENRE=Jazz
TTITLE0=LWB's House (The Remix)
TTITLE1=Mounts And Mountains
TTITLE2=Lush Life
TTITLE3=In Appreciation: A Celebration Song
TTITLE4=The Experimental Movement
TTITLE5=Holdin' Court
TTITLE6=Dance Of The Infidels
TTITLE7=Unconditional Love
TTITLE8=The Life Of A Song
TTITLE9=Black Bottom
TTITLE10=Soul Eyes
EXTD=YEAR: 2004
EXTT0=
EXTT1=
EXTT2=
EXTT3=
EXTT4=
EXTT5=
EXTT6=
EXTT7=
EXTT8=
EXTT9=
EXTT10=
PLAYORDER=
